<svg xmlns="http://www.w3.org/2000/svg" viewBox="0 0 49 49" width="49" height="49">
	<style>
		tspan { white-space:pre }
		.shp0 { fill: #ffffff } 
	</style>
	<g id="homepage">
		<g id="in-progress">
			<g id="project1">
				<g id="blocks">
					<g id="end">
						<path id="Tvar 27" class="shp0" d="M4.12 9.82C3.98 9.3 3.63 8.86 3.16 8.59C2.69 8.33 2.13 8.26 1.61 8.4L1.49 8.44C0.41 8.74 -0.23 9.86 0.08 10.95L10.4 47.81C10.64 48.67 11.54 49.18 12.41 48.94L12.41 48.94L13.31 48.68C14.18 48.44 14.69 47.54 14.45 46.68L4.12 9.82ZM48.76 23.18C45.49 21.55 42.46 19.47 39.76 17C39.54 16.79 39.45 16.48 39.54 16.18C40.87 11.14 41.86 6.02 42.5 0.84C42.61 -0.02 42.14 -0.27 41.65 0.32C32.03 11.8 15.38 -1.78 5.47 8.66C5.59 8.88 5.68 9.12 5.75 9.36L12.45 33.29C22.37 22.98 38.96 36.47 48.57 25.02C49.06 24.43 49.15 23.35 48.76 23.18Z" />
					</g>
				</g>
			</g>
		</g>
	</g>
</svg>