<svg xmlns="http://www.w3.org/2000/svg" viewBox="0 0 50 50" width="50" height="50">
	<style>
		tspan { white-space:pre }
		.shp0 { fill: #ffffff } 
	</style>
	<g id="homepage">
		<g id="in-progress">
			<g id="project1">
				<g id="blocks">
					<g id="budget">
						<path id="Tvar 28" class="shp0" d="M42.68 7.32C37.96 2.6 31.68 0 25 0C18.32 0 12.04 2.6 7.32 7.32C2.6 12.04 0 18.32 0 25C0 31.68 2.6 37.96 7.32 42.68C12.04 47.4 18.32 50 25 50C31.68 50 37.96 47.4 42.68 42.68C47.4 37.96 50 31.68 50 25C50 18.32 47.4 12.04 42.68 7.32L42.68 7.32ZM25 23.44C28.88 23.44 32.03 26.59 32.03 30.47C32.03 33.68 29.87 36.39 26.92 37.23C26.71 37.29 26.56 37.48 26.56 37.7L26.56 39.02C26.56 39.86 25.92 40.58 25.08 40.62C24.18 40.66 23.44 39.95 23.44 39.06L23.44 37.7C23.44 37.48 23.29 37.29 23.08 37.23C20.15 36.4 17.99 33.7 17.97 30.51C17.96 29.66 18.63 28.93 19.49 28.91C20.37 28.88 21.09 29.59 21.09 30.47C21.09 32.71 23 34.52 25.28 34.36C27.2 34.23 28.76 32.67 28.9 30.75C29.06 28.47 27.25 26.56 25 26.56C21.12 26.56 17.97 23.41 17.97 19.53C17.97 16.32 20.13 13.61 23.08 12.77C23.29 12.71 23.44 12.52 23.44 12.3L23.44 10.98C23.44 10.14 24.08 9.41 24.92 9.38C25.82 9.33 26.56 10.05 26.56 10.94L26.56 12.3C26.56 12.52 26.71 12.71 26.92 12.77C29.85 13.6 32.01 16.29 32.03 19.49C32.04 20.34 31.37 21.07 30.51 21.09C29.63 21.12 28.91 20.41 28.91 19.53C28.91 17.28 27 15.47 24.72 15.63C22.8 15.77 21.24 17.33 21.1 19.25C20.94 21.53 22.75 23.44 25 23.44L25 23.44Z" />
					</g>
				</g>
			</g>
		</g>
	</g>
</svg>