<svg xmlns="http://www.w3.org/2000/svg" viewBox="0 0 54 54" width="54" height="54">
	<style>
		tspan { white-space:pre }
		.shp0 { fill: #ffffff } 
	</style>
	<g id="homepage">
		<g id="in-progress">
			<g id="project1">
				<g id="blocks">
					<g id="start">
						<path id="Tvar 26" class="shp0" d="M13.74 14.58L9.06 14.94C7.76 15.04 6.6 15.73 5.88 16.81L0.48 24.98C-0.07 25.8 -0.15 26.84 0.25 27.74C0.65 28.65 1.47 29.28 2.45 29.43L6.73 30.09C7.74 24.77 10.13 19.47 13.74 14.58L13.74 14.58ZM23.91 47.26L24.57 51.55C24.72 52.53 25.35 53.35 26.26 53.75C26.63 53.92 27.03 54 27.43 54C27.99 54 28.54 53.84 29.02 53.52L37.18 48.12C38.27 47.4 38.95 46.24 39.06 44.94L39.42 40.26C34.53 43.86 29.22 46.26 23.91 47.26L23.91 47.26ZM22.3 44.3C22.44 44.3 22.59 44.28 22.74 44.26C24.97 43.89 27.12 43.26 29.17 42.44L11.56 24.83C10.74 26.88 10.11 29.03 9.74 31.25C9.59 32.13 9.89 33.03 10.52 33.66L20.34 43.48C20.86 44 21.57 44.3 22.3 44.3ZM49.69 23.94C54 15.61 54.16 6.81 53.94 2.68C53.86 1.27 52.73 0.14 51.32 0.06C50.64 0.03 49.85 0 48.95 0C44.33 0 37.03 0.7 30.06 4.3C24.52 7.17 17.25 13.48 12.96 21.78C13.01 21.82 13.06 21.86 13.11 21.9L32.09 40.89C32.14 40.94 32.18 40.99 32.22 41.04C40.52 36.75 46.83 29.48 49.69 23.94L49.69 23.94ZM31.4 11.42C34.48 8.33 39.5 8.33 42.58 11.42C44.08 12.91 44.9 14.9 44.9 17.01C44.9 19.12 44.08 21.11 42.58 22.6C41.04 24.14 39.02 24.91 36.99 24.92C34.96 24.92 32.94 24.14 31.4 22.6C29.9 21.11 29.08 19.12 29.08 17.01C29.08 14.9 29.9 12.91 31.4 11.42L31.4 11.42ZM33.63 20.36C35.48 22.21 38.5 22.21 40.35 20.36C41.24 19.47 41.74 18.28 41.74 17.01C41.74 15.74 41.24 14.55 40.35 13.65C39.42 12.73 38.21 12.26 36.99 12.26C35.77 12.26 34.56 12.73 33.63 13.65C32.74 14.55 32.24 15.74 32.24 17.01C32.24 18.28 32.74 19.47 33.63 20.36L33.63 20.36ZM1.61 44.5C2.02 44.5 2.42 44.35 2.73 44.04L7.9 38.87C8.51 38.25 8.51 37.25 7.9 36.63C7.28 36.02 6.28 36.02 5.66 36.63L0.49 41.8C-0.12 42.42 -0.12 43.42 0.49 44.04C0.8 44.35 1.21 44.5 1.61 44.5ZM12.63 41.37C12.01 40.75 11.01 40.75 10.39 41.37L0.46 51.3C-0.16 51.92 -0.16 52.92 0.46 53.54C0.77 53.84 1.18 54 1.58 54C1.99 54 2.39 53.84 2.7 53.54L12.63 43.6C13.25 42.99 13.25 41.99 12.63 41.37L12.63 41.37ZM15.13 46.1L9.96 51.27C9.34 51.88 9.34 52.89 9.96 53.5C10.27 53.81 10.68 53.97 11.08 53.97C11.48 53.97 11.89 53.81 12.2 53.5L17.36 48.34C17.98 47.72 17.98 46.72 17.36 46.1C16.75 45.48 15.74 45.48 15.13 46.1L15.13 46.1Z" />
					</g>
				</g>
			</g>
		</g>
	</g>
</svg>