<svg width="0" height="0" class="hidden">
  <symbol xmlns="http://www.w3.org/2000/svg" viewBox="0 0 54 54" id="rocket">
    <path d="M13.74 14.58l-4.68.36c-1.3.1-2.46.79-3.18 1.87l-5.4 8.17a2.86 2.86 0 0 0-.23 2.76c.4.91 1.22 1.54 2.2 1.69l4.28.66c1.01-5.32 3.4-10.62 7.01-15.51zm10.17 32.68l.66 4.29c.15.98.78 1.8 1.69 2.2.37.17.77.25 1.17.25.56 0 1.11-.16 1.59-.48l8.16-5.4a4.208 4.208 0 0 0 1.88-3.18l.36-4.68c-4.89 3.6-10.2 6-15.51 7zM22.3 44.3c.14 0 .29-.02.44-.04 2.23-.37 4.38-1 6.43-1.82L11.56 24.83c-.82 2.05-1.45 4.2-1.82 6.42-.15.88.15 1.78.78 2.41l9.82 9.82c.52.52 1.23.82 1.96.82zm27.39-20.36C54 15.61 54.16 6.81 53.94 2.68A2.786 2.786 0 0 0 51.32.06C50.64.03 49.85 0 48.95 0c-4.62 0-11.92.7-18.89 4.3-5.54 2.87-12.81 9.18-17.1 17.48l.15.12 18.98 18.99c.05.05.09.1.13.15 8.3-4.29 14.61-11.56 17.47-17.1zM31.4 11.42c3.08-3.09 8.1-3.09 11.18 0a7.827 7.827 0 0 1 2.32 5.59c0 2.11-.82 4.1-2.32 5.59a7.925 7.925 0 0 1-5.59 2.32c-2.03 0-4.05-.78-5.59-2.32a7.827 7.827 0 0 1-2.32-5.59c0-2.11.82-4.1 2.32-5.59zm2.23 8.94a4.762 4.762 0 0 0 6.72 0c.89-.89 1.39-2.08 1.39-3.35s-.5-2.46-1.39-3.36a4.765 4.765 0 0 0-3.36-1.39c-1.22 0-2.43.47-3.36 1.39-.89.9-1.39 2.09-1.39 3.36s.5 2.46 1.39 3.35zM1.61 44.5c.41 0 .81-.15 1.12-.46l5.17-5.17a1.6 1.6 0 0 0 0-2.24 1.6 1.6 0 0 0-2.24 0L.49 41.8a1.6 1.6 0 0 0 0 2.24c.31.31.72.46 1.12.46zm11.02-3.13c-.62-.62-1.62-.62-2.24 0L.46 51.3c-.62.62-.62 1.62 0 2.24.31.3.72.46 1.12.46.41 0 .81-.16 1.12-.46l9.93-9.94c.62-.61.62-1.61 0-2.23zm2.5 4.73l-5.17 5.17a1.57 1.57 0 0 0 0 2.23c.31.31.72.47 1.12.47.4 0 .81-.16 1.12-.47l5.16-5.16c.62-.62.62-1.62 0-2.24a1.57 1.57 0 0 0-2.23 0z" fill="#fff"></path>
  </symbol>
  <symbol xmlns="http://www.w3.org/2000/svg" viewBox="0 0 24 24" id="arrow">
    <path d="M0 0h24v24H0V0z" fill="none"></path>
    <path d="M7.41 8.59L12 13.17l4.59-4.58L18 10l-6 6-6-6 1.41-1.41z"></path>
  </symbol>
  <symbol xmlns="http://www.w3.org/2000/svg" viewBox="0 0 49 49" id="flag">
    <path d="M4.12 9.82c-.14-.52-.49-.96-.96-1.23-.47-.26-1.03-.33-1.55-.19l-.12.04C.41 8.74-.23 9.86.08 10.95L10.4 47.81c.24.86 1.14 1.37 2.01 1.13l.9-.26c.87-.24 1.38-1.14 1.14-2L4.12 9.82zm44.64 13.36a39.33 39.33 0 0 1-9-6.18c-.22-.21-.31-.52-.22-.82C40.87 11.14 41.86 6.02 42.5.84c.11-.86-.36-1.11-.85-.52-9.62 11.48-26.27-2.1-36.18 8.34.12.22.21.46.28.7l6.7 23.93c9.92-10.31 26.51 3.18 36.12-8.27.49-.59.58-1.67.19-1.84z" fill="#fff"></path>
  </symbol>
  <symbol xmlns="http://www.w3.org/2000/svg" viewBox="0 0 50 50" id="money">
    <path d="M42.68 7.32C37.96 2.6 31.68 0 25 0S12.04 2.6 7.32 7.32C2.6 12.04 0 18.32 0 25s2.6 12.96 7.32 17.68C12.04 47.4 18.32 50 25 50s12.96-2.6 17.68-7.32C47.4 37.96 50 31.68 50 25s-2.6-12.96-7.32-17.68zM25 23.44c3.88 0 7.03 3.15 7.03 7.03 0 3.21-2.16 5.92-5.11 6.76-.21.06-.36.25-.36.47v1.32c0 .84-.64 1.56-1.48 1.6-.9.04-1.64-.67-1.64-1.56V37.7c0-.22-.15-.41-.36-.47a7.045 7.045 0 0 1-5.11-6.72c-.01-.85.66-1.58 1.52-1.6.88-.03 1.6.68 1.6 1.56 0 2.24 1.91 4.05 4.19 3.89 1.92-.13 3.48-1.69 3.62-3.61a3.914 3.914 0 0 0-3.9-4.19c-3.88 0-7.03-3.15-7.03-7.03 0-3.21 2.16-5.92 5.11-6.76.21-.06.36-.25.36-.47v-1.32c0-.84.64-1.57 1.48-1.6.9-.05 1.64.67 1.64 1.56v1.36c0 .22.15.41.36.47 2.93.83 5.09 3.52 5.11 6.72.01.85-.66 1.58-1.52 1.6-.88.03-1.6-.68-1.6-1.56 0-2.25-1.91-4.06-4.19-3.9-1.92.14-3.48 1.7-3.62 3.62a3.914 3.914 0 0 0 3.9 4.19z" fill="#fff"></path>
  </symbol>
</svg>